<?xml version="1.0" encoding="utf-8"?>
<!-- Generator: Adobe Illustrator 16.0.0, SVG Export Plug-In . SVG Version: 6.00 Build 0)  -->
<!DOCTYPE svg PUBLIC "-//W3C//DTD SVG 1.1//EN" "http://www.w3.org/Graphics/SVG/1.1/DTD/svg11.dtd">
<svg version="1.1" id="Layer_1" xmlns="http://www.w3.org/2000/svg" xmlns:xlink="http://www.w3.org/1999/xlink" x="0px" y="0px"
	 width="164px" height="263px" viewBox="0 0 164 263" enable-background="new 0 0 164 263" xml:space="preserve">
<rect x="78.191" y="63" width="10.018" height="105"/>
<rect x="57.7" y="72" width="51" height="21"/>
<rect x="64.2" y="62" width="38" height="17"/>
<rect x="73.2" y="159" width="20" height="10"/>
<rect x="59.2" y="168" width="48" height="4"/>
<polygon points="83.2,0 80.54,48 85.86,48 "/>
<polygon points="83.2,26 74.847,63 91.554,63 "/>
<text transform="matrix(1 0 0 1 1 214.9458)"><tspan x="0" y="0" font-family="'NanumSquareR'" font-size="42" letter-spacing="8">SEOU</tspan><tspan x="141.035" y="0" font-family="'NanumSquareR'" font-size="42" letter-spacing="8">L</tspan><tspan x="171.821" y="0" font-family="'NanumSquareR'" font-size="42"> </tspan></text>
<text transform="matrix(1 0 0 1 1 258.1465)"><tspan x="0" y="0" font-family="'NanumSquareR'" font-size="36" letter-spacing="7">T</tspan><tspan x="27.72" y="0" font-family="'NanumSquareR'" font-size="36" letter-spacing="7">R</tspan><tspan x="57.6" y="0" font-family="'NanumSquareR'" font-size="36" letter-spacing="4">A</tspan><tspan x="85.967" y="0" font-family="'NanumSquareR'" font-size="36" letter-spacing="7">VE</tspan><tspan x="144.539" y="0" font-family="'NanumSquareR'" font-size="36">L</tspan></text>
</svg>
